<?xml version="1.0" encoding="UTF-8"?>
<!DOCTYPE svg PUBLIC "-//W3C//DTD SVG 1.1//EN" "http://www.w3.org/Graphics/SVG/1.1/DTD/svg11.dtd">
<!-- Creator: CorelDRAW 2021 (64-Bit) -->
<?xml-stylesheet href="shamgunova_0.css" type="text/css"?>
<svg xmlns="http://www.w3.org/2000/svg" xml:space="preserve" width="617px" height="617px" version="1.1" style="shape-rendering:geometricPrecision; text-rendering:geometricPrecision; image-rendering:optimizeQuality; fill-rule:evenodd; clip-rule:evenodd"
viewBox="0 0 432.25 432.25"
 xmlns:xlink="http://www.w3.org/1999/xlink"
 xmlns:xodm="http://www.corel.com/coreldraw/odm/2003">
 <g id="Слой_x0020_1">
  <metadata id="CorelCorpID_0Corel-Layer"/>
  <g id="_2033975380000">
   <path class="fil0" d="M82.63 328.31c-12.93,44.7 4.83,77.26 51.61,95.83 66.16,19.79 122.66,-21.55 160.26,-43.19 2.52,-1.45 6.11,-0.23 8.44,-1.51l22.06 -12.17c0.47,-0.26 2.34,1.18 4.36,2.16 11.39,5.99 21.83,7.39 32.96,-2.2 30.51,-26.29 -11.56,-71.08 -38.4,-44.25 -9.12,9.13 -10.36,18.36 -7.78,33.1 0.04,0.22 -11.8,6.02 -21.3,13.24 -2.11,1.61 -2.78,5.16 -4.71,6.6 -3.99,2.98 -7.34,5.39 -9.02,6.41 -44.47,26.99 -113.31,56.9 -161.66,21.88 -0.5,-0.36 -1.22,-0.84 -1.71,-1.21 -0.48,-0.37 -1.18,-0.89 -1.65,-1.27 -46.59,-38.13 -7.56,-124.35 36.6,-136.14l0 61.3 105.08 0 0 -140.11 90.48 0 0 -99.24 -90.48 0 0 -84.65c-33.73,12.21 -21.37,122.59 -35.8,159.77 -14.09,36.29 -41.03,63.52 -71.75,84.59 -18.5,12.7 -60.65,57.1 -67.59,81.06z"/>
   <path class="fil1" d="M79.13 345.25c1.87,-11.92 4.07,-31.11 46.54,-76.31 45.88,-42.94 68.05,-55.68 76.17,-123.5 5.62,-46.99 -2.09,-79.52 -26.37,-115.71 -7.58,-11.3 -11.84,-19.51 -22.78,-26.84l0 81.73 -93.41 0 0 102.16 93.41 0c0,78.81 -61.24,75.88 -73.56,158.47z"/>
   <path class="fil2" d="M178.96 417.37c0.29,0.29 0.86,-1.28 0.87,-0.87l0 0c-0.06,0.06 -1.16,0.58 -0.87,0.87z"/>
  </g>
  <rect class="fil3" width="432.25" height="432.25"/>
 </g>
</svg>
